<svg width="1425" height="802" viewBox="0 0 1425 802" fill="none" xmlns="http://www.w3.org/2000/svg">
<path d="M205.77 244.137C224.213 63.2675 405.931 -51.225 542.28 -48.6471C699.407 -45.6538 758.32 112.111 877.993 64.3955C987.202 20.9054 993.933 -132.797 1074.2 -156.864C1147.98 -178.977 1264.46 -85.8136 1455.82 374.584" stroke="white" stroke-opacity="0.3" stroke-miterlimit="10"/>
<path d="M1446.61 394.951C1257.58 -58.7928 1141.04 -155.546 1066.23 -137.556C1010.78 -124.116 989.278 -49.5174 945.804 8.74283C924.103 38.7341 897.442 60.704 868.213 72.6801C772.472 112.013 715.624 24.4302 613.472 -13.2939C587.434 -23.0201 560.668 -28.4163 533.724 -29.3715C396.825 -34.8537 217.161 64.3462 195.928 238.623" stroke="white" stroke-opacity="0.3" stroke-miterlimit="10"/>
<path d="M1437.38 415.258C1250.67 -31.8009 1134.13 -132.113 1058.44 -118.214C1002.81 -107.99 980.04 -36.9526 936.483 18.3418C914.266 47.2519 887.645 68.6714 858.65 80.9675C764.287 120.959 707.444 42.0544 604.932 6.07773C578.881 -3.14222 552.216 -8.55095 525.363 -10.0619C387.89 -17.8554 210.304 65.4277 186.281 233.112" stroke="white" stroke-opacity="0.3" stroke-miterlimit="10"/>
<path d="M1428.17 435.499C1243.83 -4.78089 1127.23 -108.621 1050.57 -98.9068C994.696 -91.8365 970.759 -24.4224 927.051 27.9373C904.366 55.7491 877.806 76.6309 849.065 89.2515C755.991 129.901 699.354 59.6442 596.372 25.446C570.295 16.6501 543.7 11.1959 516.914 9.15046C378.89 -1.29755 203.381 66.412 176.568 227.504" stroke="white" stroke-opacity="0.3" stroke-miterlimit="10"/>
<path d="M1418.97 455.9C1236.95 22.2113 1120.39 -85.0938 1042.69 -79.5648C986.638 -75.6166 961.418 -11.8263 917.583 37.505C894.413 64.2329 867.866 84.5997 839.332 97.5388C747.548 138.847 691.049 77.2683 587.551 44.8173C561.502 36.5321 535.035 31.0739 508.383 28.4911C369.785 15.3885 196.354 67.5558 166.728 222.056" stroke="white" stroke-opacity="0.3" stroke-miterlimit="10"/>
<path d="M1409.85 476.232C1230.09 49.1977 1113.47 -64.6009 1034.79 -60.2601C978.636 -57.2486 952.07 0.545353 908.151 47.0981C884.508 72.6945 857.975 92.5445 829.659 105.82C739.163 147.786 682.848 94.8867 578.99 64.2144C552.949 56.3571 526.572 50.8622 500.022 47.7638C360.852 31.8816 189.497 68.6003 157.082 216.539" stroke="white" stroke-opacity="0.3" stroke-miterlimit="10"/>
<path d="M1400.54 496.569C1223.2 76.2193 1106.67 -37.8289 1026.92 -41.1073C970.597 -43.0285 942.678 13.1083 898.698 56.7265C874.608 81.1819 848.085 100.527 819.985 114.137C730.779 156.761 674.58 112.509 570.341 83.6155C544.306 76.2239 518.015 70.7124 491.573 67.1028C351.83 48.566 182.553 69.6176 147.347 211.058" stroke="white" stroke-opacity="0.3" stroke-miterlimit="10"/>
<path d="M1391.33 516.909C1216.39 103.214 1099.84 -14.362 1019.03 -21.6071C962.579 -26.7753 933.243 25.3941 889.247 66.2963C864.729 89.588 838.206 108.418 810.314 122.333C722.419 165.646 666.337 130.104 561.694 102.896C537.346 96.6042 511.35 90.5594 483.127 86.2896C342.788 65.0046 175.61 70.7324 137.614 205.518" stroke="white" stroke-opacity="0.3" stroke-miterlimit="10"/>
<path d="M1382.12 537.239C1209.46 130.229 1093.01 9.43806 1011.16 -2.36684C954.56 -10.5009 923.786 37.701 879.75 75.8248C854.804 97.9398 828.265 116.294 800.576 130.581C713.969 174.553 658.048 147.627 552.979 122.259C528.518 116.342 502.59 110.36 474.59 105.56C333.856 81.5581 168.666 71.8059 127.88 199.968" stroke="white" stroke-opacity="0.3" stroke-miterlimit="10"/>
<path d="M1372.89 557.545C1202.58 157.22 1086.18 33.1828 1003.27 17.0366C946.539 5.96781 914.216 50.0772 870.363 85.4542C845.022 106.379 818.471 124.268 790.991 138.93C705.651 183.56 649.869 165.313 544.396 141.568C519.935 136.025 493.984 130.043 466.208 124.744C324.745 97.8686 161.721 72.6992 118.145 194.3" stroke="white" stroke-opacity="0.3" stroke-miterlimit="10"/>
<path d="M1363.69 577.878C1195.71 184.207 1079.34 56.985 995.444 36.3415C938.585 22.3693 904.802 62.3238 860.954 95.0786C835.223 114.768 808.64 132.18 781.362 147.212C697.334 192.499 641.69 182.9 535.791 161.089C511.218 155.984 485.334 149.971 457.803 144.204C315.767 114.455 154.843 73.931 108.431 188.939" stroke="white" stroke-opacity="0.3" stroke-miterlimit="10"/>
<path d="M1354.48 598.216C1188.83 211.23 1072.47 80.7929 987.51 55.652C930.501 38.8074 895.235 74.5447 851.482 104.677C826.331 121.985 800.579 139.447 771.648 155.499C688.909 201.413 633.403 200.524 527.101 180.461C502.46 175.761 476.62 169.717 449.268 163.482C306.66 130.86 147.812 74.981 98.6331 183.428" stroke="white" stroke-opacity="0.3" stroke-miterlimit="10"/>
<path d="M1345.28 618.555C1181.95 238.348 1065.75 104.664 979.646 74.9947C922.487 55.2466 885.672 86.704 842.036 114.277C816.286 130.553 790.468 147.516 761.981 163.787C680.531 210.453 625.187 218.118 518.458 199.833C493.749 195.57 467.932 189.495 440.87 182.761C297.712 147.204 140.919 76.0321 88.9492 177.918" stroke="white" stroke-opacity="0.3" stroke-miterlimit="10"/>
<path d="M1336.12 638.887C1175.09 265.24 1058.78 128.559 971.775 94.3301C914.466 71.7721 876.103 98.8248 832.582 123.901C806.212 139.083 780.35 155.578 752.397 172.099C672.214 219.33 617.053 235.767 509.808 219.261C485.01 215.372 459.26 209.265 432.421 202.095C288.69 163.54 133.974 77.0758 79.2141 172.4" stroke="white" stroke-opacity="0.3" stroke-miterlimit="10"/>
<path d="M1326.84 659.189C1168.2 292.227 1051.97 152.519 963.88 113.636C906.398 88.2372 866.509 110.854 823.149 133.464C796.157 147.521 770.207 163.61 742.632 180.351C663.783 228.24 608.716 253.324 501.156 238.597C475.224 234.665 449.454 228.874 423.948 221.244C279.688 179.847 126.96 78.184 69.4764 166.854" stroke="white" stroke-opacity="0.3" stroke-miterlimit="10"/>
<path d="M1317.64 679.53C1161.32 319.253 1044.98 176.392 956.08 132.95C898.425 104.741 856.988 122.859 813.677 143.066C786.065 155.967 760.071 171.649 732.963 188.641C655.38 237.188 600.474 270.951 492.555 257.971C466.645 254.513 440.922 248.716 415.547 240.619C270.693 195.974 120.085 79.237 59.7232 161.221" stroke="white" stroke-opacity="0.3" stroke-miterlimit="10"/>
<path d="M1308.44 699.86C1154.47 346.238 1038 200.473 948.13 152.252C890.348 121.296 847.34 134.791 804.256 152.625C776.023 164.339 749.986 179.709 723.322 196.92C647.05 246.125 592.261 288.536 483.872 277.334C457.984 274.308 432.305 268.475 407.064 259.889C261.726 212.309 113.151 80.3103 49.9977 155.826" stroke="white" stroke-opacity="0.3" stroke-miterlimit="10"/>
<path d="M1299.21 720.195C1147.59 373.382 1031.19 224.464 940.258 171.591C882.236 137.824 837.747 146.665 794.823 162.221C765.881 172.684 739.867 187.742 713.647 205.204C638.665 255.005 584.036 306.157 475.221 296.734C449.359 294.12 423.72 288.25 398.613 279.195C252.748 228.524 106.204 81.3571 40.2611 150.312" stroke="white" stroke-opacity="0.3" stroke-miterlimit="10"/>
<path d="M1290 740.534C1140.81 400.251 1024.24 248.523 932.362 191.027C874.145 154.513 828.174 158.637 785.366 172.008C755.87 181.315 729.701 195.999 703.97 213.68C630.277 264.201 575.787 323.969 466.568 316.231C440.733 314.03 415.13 308.122 390.161 298.599C243.768 244.805 99.1446 82.6267 30.5227 144.927" stroke="white" stroke-opacity="0.3" stroke-miterlimit="10"/>
<path d="M1280.79 760.87C1133.84 427.271 1017.28 272.578 924.494 210.241C866.039 170.948 818.609 170.293 775.916 181.417C745.8 189.287 719.609 203.876 694.3 221.839C621.918 273.019 567.567 341.434 457.921 335.537C432.114 333.765 406.542 327.817 381.715 317.812C234.816 260.802 92.3141 83.4868 20.7906 139.288" stroke="white" stroke-opacity="0.3" stroke-miterlimit="10"/>
<path d="M1271.57 781.173C1126.95 454.26 1010.31 296.788 916.691 229.549C858.018 187.54 809.152 182.043 766.575 191.012C735.839 197.477 709.581 211.91 684.739 230.03C613.624 281.899 559.411 358.993 449.362 354.844C423.578 353.468 398.028 347.48 373.333 337.025C226.041 276.548 85.4589 84.5652 11.1006 133.743" stroke="white" stroke-opacity="0.3" stroke-miterlimit="10"/>
<path d="M1262.38 801.51C1031.49 281.752 867.769 182.721 757.031 200.609C636.145 220.133 589.717 377.409 440.622 374.244C265.72 370.498 91.4967 78.3967 1.31931 128.23" stroke="white" stroke-opacity="0.3" stroke-miterlimit="10"/>
</svg>
