<svg width="1440" height="622" viewBox="0 0 1440 622" fill="none" xmlns="http://www.w3.org/2000/svg">
<path d="M1259.01 437.076C1240.27 242.642 1052.29 119.204 911.059 121.687C748.308 124.572 686.968 294.01 563.113 242.474C450.088 195.501 443.429 30.2911 360.336 4.25479C283.972 -19.6678 163.136 80.2165 -36 574.639" stroke="white" stroke-opacity="0.3" stroke-miterlimit="10"/>
<path d="M-26.5078 596.551C170.209 109.275 291.114 5.53216 368.561 25.0259C425.961 39.5874 448.082 119.81 492.992 182.519C515.408 214.799 542.978 238.468 573.227 251.401C672.311 293.878 731.37 199.865 837.252 159.536C864.24 149.137 891.974 143.394 919.883 142.424C1061.69 136.821 1247.57 243.818 1269.21 431.173" stroke="white" stroke-opacity="0.3" stroke-miterlimit="10"/>
<path d="M-16.9883 618.394C177.309 138.298 298.214 30.7303 376.583 45.8287C434.19 56.9344 457.624 133.332 502.627 192.854C525.579 223.972 553.108 247.05 583.115 260.327C680.771 303.508 739.807 218.823 846.057 180.372C873.058 170.518 900.688 164.761 928.504 163.194C1070.91 155.108 1254.68 244.993 1279.22 425.268" stroke="white" stroke-opacity="0.3" stroke-miterlimit="10"/>
<path d="M-7.49609 640.17C184.335 167.355 305.31 55.9961 384.692 66.5985C442.553 74.3155 467.209 146.821 512.373 203.189C535.812 233.128 563.279 255.628 593.022 269.253C689.341 313.139 748.147 237.747 854.881 201.209C881.908 191.811 909.465 186.005 937.213 183.863C1080.19 172.925 1261.84 246.068 1289.28 419.264" stroke="white" stroke-opacity="0.3" stroke-miterlimit="10"/>
<path d="M1.99609 662.111C191.408 196.376 312.36 81.2926 392.825 87.3991C450.87 91.7609 476.862 160.375 522.164 213.488C546.109 242.263 573.563 264.209 603.091 278.176C698.073 322.766 756.717 256.702 863.981 222.043C890.979 213.193 918.404 207.383 946.014 204.663C1089.59 190.873 1269.12 247.308 1299.49 413.424" stroke="white" stroke-opacity="0.3" stroke-miterlimit="10"/>
<path d="M11.3984 683.983C198.46 225.395 319.481 103.332 400.96 108.164C459.12 111.519 486.518 173.691 531.912 223.818C556.349 251.378 583.79 272.768 613.092 287.097C706.738 332.392 765.175 275.655 872.808 242.909C899.796 234.519 927.128 228.669 954.633 225.395C1098.81 208.619 1276.22 248.445 1309.49 407.515" stroke="white" stroke-opacity="0.3" stroke-miterlimit="10"/>
<path d="M21.0078 705.863C205.535 254.454 326.463 132.124 409.072 128.769C467.416 126.822 496.22 187.216 541.683 234.189C566.585 260.524 594.016 281.371 623.093 296.059C715.403 342.059 773.701 294.616 881.726 263.782C908.707 255.892 935.949 250.024 963.343 246.201C1108.12 226.573 1283.41 249.556 1319.59 401.647" stroke="white" stroke-opacity="0.3" stroke-miterlimit="10"/>
<path d="M30.5039 727.738C212.542 283.476 333.494 157.354 417.208 149.737C475.691 144.302 505.969 200.434 551.456 244.488C576.802 269.573 604.236 289.867 633.096 304.882C724.046 351.62 782.206 313.538 890.646 284.516C915.878 277.805 942.815 271.363 972.056 266.834C1117.46 244.253 1290.6 250.762 1329.68 395.707" stroke="white" stroke-opacity="0.3" stroke-miterlimit="10"/>
<path d="M39.9922 749.612C219.657 312.53 340.516 182.953 425.314 170.438C483.958 161.815 515.734 213.686 561.267 254.754C587.059 278.575 614.51 298.358 643.161 313.772C732.774 361.214 790.75 332.393 899.627 305.35C924.974 299.043 951.842 292.668 980.853 287.568C1126.67 262.068 1297.78 251.936 1339.77 389.767" stroke="white" stroke-opacity="0.3" stroke-miterlimit="10"/>
<path d="M49.5117 771.458C226.734 341.556 347.547 208.489 433.451 191.31C492.233 179.533 525.622 227.009 570.97 265.124C597.175 287.668 624.64 306.95 653.072 322.767C741.372 370.914 799.186 351.42 908.478 326.122C933.826 320.217 960.716 313.842 989.497 308.205C1136.07 279.619 1304.98 252.911 1349.86 383.697" stroke="white" stroke-opacity="0.3" stroke-miterlimit="10"/>
<path d="M59.0078 793.33C233.787 370.574 354.578 234.085 441.518 212.075C500.439 197.178 535.349 240.191 580.697 275.488C607.309 296.705 634.806 315.475 663.029 331.688C749.969 380.539 807.622 370.339 917.352 347.122C942.815 341.686 969.636 335.278 998.163 329.138C1145.34 297.465 1312.1 254.25 1359.94 377.956" stroke="white" stroke-opacity="0.3" stroke-miterlimit="10"/>
<path d="M68.5 815.208C240.86 399.633 361.651 259.688 449.697 232.846C508.779 214.863 545.233 253.347 590.489 285.825C616.504 304.48 643.141 323.303 673.074 340.615C758.678 390.138 816.17 389.299 926.314 367.96C951.846 362.961 978.622 356.519 1006.96 349.876C1154.74 315.116 1319.38 255.393 1370.1 372.054" stroke="white" stroke-opacity="0.3" stroke-miterlimit="10"/>
<path d="M77.9922 837.085C247.933 428.79 368.562 285.356 457.807 253.649C517.05 232.545 555.116 266.432 600.257 296.159C626.895 313.707 653.601 331.993 683.073 349.541C767.341 399.869 824.648 408.223 935.231 388.796C960.831 384.267 987.584 377.791 1015.63 370.611C1163.98 332.698 1326.52 256.534 1380.14 366.149" stroke="white" stroke-opacity="0.3" stroke-miterlimit="10"/>
<path d="M87.4414 858.96C254.986 457.711 375.73 311.056 465.919 274.45C525.324 250.326 565.004 279.483 610.029 306.526C637.312 322.899 664.065 340.682 692.983 358.498C775.937 409.43 833.037 427.213 944.15 409.698C969.843 405.571 996.526 399.062 1024.34 391.413C1173.29 350.278 1333.71 257.674 1390.24 360.243" stroke="white" stroke-opacity="0.3" stroke-miterlimit="10"/>
<path d="M97.0078 880.804C262.063 486.736 382.739 336.826 474.057 295.221C533.646 268.044 574.916 292.437 619.78 316.829C647.708 331.994 674.553 349.341 703.08 367.392C784.651 419.028 841.636 446.105 953.071 430.503C979.938 426.333 1006.64 420.162 1033.08 412.016C1182.58 367.828 1340.97 258.885 1400.33 354.307" stroke="white" stroke-opacity="0.3" stroke-miterlimit="10"/>
<path d="M106.496 902.676C269.132 515.788 389.923 362.489 482.094 315.986C541.867 285.789 584.749 305.35 629.568 327.159C658.141 341.083 685.032 357.993 713.075 376.312C793.333 428.654 850.133 465.057 961.937 451.335C988.781 447.672 1015.44 441.497 1041.73 432.848C1191.86 385.17 1348.09 260.021 1410.44 348.263" stroke="white" stroke-opacity="0.3" stroke-miterlimit="10"/>
<path d="M115.988 924.549C276.182 544.807 397.11 388.388 490.296 336.751C550.207 303.602 594.726 318.197 639.313 337.456C668.532 350.105 695.469 366.679 723.051 385.234C801.95 438.279 858.612 483.977 970.899 472.167C997.719 468.968 1024.33 462.754 1050.49 453.579C1201.12 402.748 1355.28 261.192 1420.53 342.488" stroke="white" stroke-opacity="0.3" stroke-miterlimit="10"/>
<path d="M125.508 946.426C283.259 573.999 404.118 414.191 498.41 357.555C558.574 321.386 604.637 330.982 649.063 347.792C679.019 359.099 705.933 375.338 733.055 394.161C810.617 447.844 867.094 502.936 979.82 493.038C1006.61 490.283 1033.18 484.029 1059.2 474.35C1210.39 420.197 1362.47 262.335 1430.63 336.585" stroke="white" stroke-opacity="0.3" stroke-miterlimit="10"/>
<path d="M135 968.305C290.216 602.89 411.26 440.063 506.542 378.461C566.914 339.34 614.521 343.869 658.832 358.33C689.364 368.396 716.439 384.232 743.053 403.29C819.279 457.744 875.596 522.097 988.736 514.011C1015.5 511.7 1042.03 505.404 1067.91 495.222C1219.65 437.714 1369.77 263.713 1440.72 330.817" stroke="white" stroke-opacity="0.3" stroke-miterlimit="10"/>
<path d="M144.492 990.182C297.381 631.948 418.425 465.932 514.652 399.13C575.277 357.023 624.405 356.419 668.601 368.464C699.778 376.986 726.876 392.722 753.053 412.081C827.919 467.241 884.074 540.888 997.652 534.781C1024.39 532.931 1050.88 526.592 1076.62 515.891C1228.89 454.927 1376.84 264.654 1450.81 324.779" stroke="white" stroke-opacity="0.3" stroke-miterlimit="10"/>
<path d="M154.012 1012.02C304.458 660.966 425.594 491.965 522.697 419.895C583.553 374.869 634.178 369.064 678.259 378.794C710.081 385.807 737.248 401.375 762.941 420.902C836.493 476.8 892.487 559.774 1006.48 555.546C1033.19 554.122 1059.66 547.74 1085.26 536.556C1237.95 471.867 1383.94 265.825 1460.86 318.837" stroke="white" stroke-opacity="0.3" stroke-miterlimit="10"/>
<path d="M163.484 1033.9C403.683 475.761 573.462 369.67 688.123 389.13C813.291 410.369 861.059 579.504 1015.49 576.417C1196.65 572.76 1377.7 259.183 1471 312.934" stroke="white" stroke-opacity="0.3" stroke-miterlimit="10"/>
</svg>
